<?xml version="1.0" encoding="UTF-8"?>
<svg xmlns="http://www.w3.org/2000/svg" xmlns:xlink="http://www.w3.org/1999/xlink" width="16px" height="16px" viewBox="0 0 16 16" version="1.1">
    
    <title>icon</title>
    <desc>Created with sketchtool.</desc>
    <g id="Page-1" stroke="none" stroke-width="1" fill="none" fill-rule="evenodd">
        <g id="icon">
            <rect id="Rectangle" fill="#0090DA" x="0" y="0" width="16" height="16"/>
            <path d="M4.75572519,6.06870229 C5.17557252,5.44529262 5.78625954,5 6.67684478,5 C7.70737913,5 8.36895674,5.48346056 8.66157761,6.27226463 C9.08142494,5.55979644 9.7302799,5 10.7608142,5 C12.3384224,5 13,6.00508906 13,7.46819338 L13,10.5470738 C13,11.1959288 12.6692112,11.3994911 12.1984733,11.3994911 L12.0203562,11.3994911 C11.5368957,11.3994911 11.2061069,11.2086514 11.2061069,10.5470738 L11.2061069,7.76081425 C11.2061069,6.93384224 10.8371501,6.50127226 10.1246819,6.50127226 C9.60305344,6.50127226 9.14503817,6.81933842 8.89058524,7.26463104 L8.89058524,10.5470738 C8.89058524,11.1959288 8.55979644,11.3994911 8.10178117,11.3994911 L7.91094148,11.3994911 C7.44020356,11.3994911 7.09669211,11.2086514 7.09669211,10.5470738 L7.09669211,7.79898219 C7.09669211,6.93384224 6.74045802,6.50127226 6.02798982,6.50127226 C5.50636132,6.50127226 5.04834606,6.81933842 4.79389313,7.26463104 L4.79389313,10.5470738 C4.79389313,11.1959288 4.46310433,11.3994911 4.00508906,11.3994911 L3.81424936,11.3994911 C3.3307888,11.3994911 3,11.2086514 3,10.5470738 L3,5.27989822 C3,5.22900763 3.31806616,5.07633588 3.67430025,5.07633588 C4.13231552,5.07633588 4.62849873,5.27989822 4.75572519,6.06870229 Z" id="m" fill="#FFFFFF"/>
        </g>
    </g>
</svg>
